<svg id="Calque_1" data-name="Calque 1" xmlns="http://www.w3.org/2000/svg" viewBox="0 0 1137.0776 100.9795"><defs><style>.cls-411{fill:#fff;stroke:#fff;stroke-miterlimit:10;stroke-width:2px;}</style></defs><title>yakushimaEngineeringLogo</title><path class="cls-411" d="M36.1611,27.7568a37.1914,37.1914,0,0,0,.6768,8.4942A13.4057,13.4057,0,0,0,40.7158,43.17a11.4175,11.4175,0,0,0,7.7559,3.2627H83.0654V19.9941H99.6846v31.95a52.5749,52.5749,0,0,1-2.708,16.9883,27.7134,27.7134,0,0,1-8.0645,11.9815,22.7094,22.7094,0,0,1-14.2187,5.3437H23.4805V71.1826H70.5078A11.4084,11.4084,0,0,0,78.2637,67.92,14.2375,14.2375,0,0,0,82.08,61.5078H44.2861a22.7151,22.7151,0,0,1-14.2187-5.3437,27.7058,27.7058,0,0,1-8.0635-11.9825A50.29,50.29,0,0,1,19.541,29.1064V19.7686h16.62Z"/><path class="cls-411" d="M164.9229,61.5078l-3.2012-8.3252q-1.9687-4.6128-3.8779-8.72a44.3892,44.3892,0,0,0-4.37-7.4815q-2.2162-3.375-5.0468-3.6-2.9547.2256-5.294,3.6a50.3457,50.3457,0,0,0-4.2471,7.4815q-1.9086,4.1075-3.8779,8.72L121.5889,86.708h-18.22l17.4815-41.1758a114.7853,114.7853,0,0,1,11.3252-20.3633q5.54-7.6494,16.251-7.7627,10.5864.1128,16.1884,7.7071A109.1633,109.1633,0,0,1,175.88,45.5322L193.4844,86.708H174.7715l-3.94-10.125H139.1934V61.5078Z"/><path class="cls-411" d="M213.2949,86.5957H196.6758V19.7686h16.6191Zm35.209-58.7266L278.05,16.9561v16.65l-21.1748,7.2q-5.0464,1.8-9.54,3.544a51.5686,51.5686,0,0,0-8.1866,3.9941q-3.6944,2.0244-3.9394,4.6123.246,2.4756,3.9394,4.6133a51.4812,51.4812,0,0,0,8.1866,3.9932q4.4926,1.7447,9.54,3.5439l22.16,7.3125V89.4082L248.5039,78.0459Q234.4707,72.8706,226.16,67.752a16.6483,16.6483,0,0,1-8.4327-14.795,16.7494,16.7494,0,0,1,8.4942-14.85Q234.47,33.0434,248.5039,27.8691Z"/><path class="cls-411" d="M311.834,87.7207a56.1779,56.1779,0,0,1-11.88-3.9941,34.0364,34.0364,0,0,1-9.9717-7.0313,15.8619,15.8619,0,0,1-4.6777-10.4629V19.7686h16.4961V62.7451a8.171,8.171,0,0,0,2.8935,5.794,21.398,21.398,0,0,0,5.9092,3.6562,34.8933,34.8933,0,0,0,6.7705,2.0254,37.4644,37.4644,0,0,0,14.1572,0,34.88,34.88,0,0,0,6.7715-2.0254,21.3965,21.3965,0,0,0,5.9092-3.6562,8.17,8.17,0,0,0,2.8926-5.794V19.7686h16.62V66.2324a15.7354,15.7354,0,0,1-4.74,10.4629,34.8427,34.8427,0,0,1-10.0332,7.0313,56.1779,56.1779,0,0,1-11.88,3.9941,59.6233,59.6233,0,0,1-25.2373,0Z"/><path class="cls-411" d="M395.4775,35.1816a8.9151,8.9151,0,0,0-3.8779.9561,6.4836,6.4836,0,0,0-2.2773,1.9131,3.6286,3.6286,0,0,0,0,4.3877A6.4923,6.4923,0,0,0,391.6,44.3506a8.9148,8.9148,0,0,0,3.8779.957H430.44q8.6176.2241,14.2188,3.6563a21.5079,21.5079,0,0,1,8.0019,7.875,18.8524,18.8524,0,0,1,2.4,9.0566A18.2872,18.2872,0,0,1,452.6,74.8389a22.1507,22.1507,0,0,1-8.0019,7.8759q-5.54,3.4308-14.1573,3.4307h-.7383a9.7832,9.7832,0,0,1-1.4775.1123H373.8105V71.1826h57.3682a6.908,6.908,0,0,0,3.8779-.7871,6.4369,6.4369,0,0,0,2.2774-2.081,4.5068,4.5068,0,0,0,.7392-2.419,5.2223,5.2223,0,0,0-.7392-2.1943,5.78,5.78,0,0,0-2.2774-2.3057,8.4021,8.4021,0,0,0-3.8779-1.0127H396.2168q-8.6176-.2256-14.22-3.6006a21.4628,21.4628,0,0,1-8.002-7.706,18.0236,18.0236,0,0,1-2.4-8.8321,17.4868,17.4868,0,0,1,2.4619-8.7187,22.1017,22.1017,0,0,1,8.002-7.7061q5.54-3.375,14.1582-3.6h.7383a9.7657,9.7657,0,0,1,1.4775-.1124H452.6V35.1816Z"/><path class="cls-411" d="M479.6738,44.4072h40.0108V19.7686h16.6191V86.5957H519.6846V59.4824H479.6738V86.5957H463.0547V19.7686h16.6191Z"/><path class="cls-411" d="M575.5664,71.4082V35.1816H545.0352V20.1064h77.5586V35.1816H592.1855V71.4082h30.4083V86.4834H545.0352V71.4082Z"/><path class="cls-411" d="M665.3643,18.4189a31.6991,31.6991,0,0,1,7.94,3.9375q.6166.5625,1.3545,1.125.6151-.5625,1.3545-1.125a31.7142,31.7142,0,0,1,7.94-3.9375,26.5535,26.5535,0,0,1,8.31-1.35,26.9263,26.9263,0,0,1,8.4326,1.35,29.6878,29.6878,0,0,1,7.8789,3.9942,25.8583,25.8583,0,0,1,6.6484,7.0312,18.5712,18.5712,0,0,1,2.8926,10.4629V86.82H701.4971V40.8066a8.7383,8.7383,0,0,0-1.1084-4.5556,10.5612,10.5612,0,0,0-2.4619-2.9258,9.5781,9.5781,0,0,0-2.8311-1.5742,9.0578,9.0578,0,0,0-2.9551-.5069,8.5209,8.5209,0,0,0-2.8926.5069,9.828,9.828,0,0,0-2.7705,1.5742,10.5612,10.5612,0,0,0-2.4619,2.9258,9.627,9.627,0,0,0-1.2314,4.5556V86.82H666.165V40.8066a8.7373,8.7373,0,0,0-1.1084-4.5556,10.5426,10.5426,0,0,0-2.4619-2.9258,9.5776,9.5776,0,0,0-2.831-1.5742,9.0587,9.0587,0,0,0-2.9551-.5069,8.5209,8.5209,0,0,0-2.8926.5069,9.8266,9.8266,0,0,0-2.7705,1.5742,10.5612,10.5612,0,0,0-2.4619,2.9258,9.6281,9.6281,0,0,0-1.2315,4.5556V86.82h-16.496V39.9072a20.4492,20.4492,0,0,1,3.0781-10.4629,24.69,24.69,0,0,1,6.6474-7.0312,30.6862,30.6862,0,0,1,7.9405-3.9942,26.5534,26.5534,0,0,1,8.3095-1.35A26.9269,26.9269,0,0,1,665.3643,18.4189Z"/><path class="cls-411" d="M782.9854,61.5078l-3.2012-8.3252q-1.97-4.6128-3.878-8.72a44.3821,44.3821,0,0,0-4.37-7.4815q-2.2163-3.375-5.0478-3.6-2.9545.2256-5.293,3.6a50.3457,50.3457,0,0,0-4.2471,7.4815q-1.9086,4.1075-3.8779,8.72L739.6514,86.708h-18.22l17.4805-41.1758a114.7825,114.7825,0,0,1,11.3262-20.3633q5.54-7.6494,16.25-7.7627,10.5879.1128,16.1894,7.7071a109.2237,109.2237,0,0,1,11.2637,20.4189L811.5459,86.708H792.834l-3.9395-10.125H757.2559V61.5078Z"/><path class="cls-411" d="M915.1885,26.125A33.2718,33.2718,0,0,1,923.19,38.7822a43.9208,43.9208,0,0,1,2.4629,14.5127,44.9405,44.9405,0,0,1-2.4013,14.5127,32.2907,32.2907,0,0,1-8.002,12.6563,20.9612,20.9612,0,0,1-14.2188,6.02H855.7275a8.4445,8.4445,0,0,1-5.6015-2.1943,7.0736,7.0736,0,0,1-2.4-5.1182V44.97h16.6191v23.4q0,3.0381,3.4473,3.0381h29.0537a11.4176,11.4176,0,0,0,7.7559-3.2627,18.5926,18.5926,0,0,0,4.4931-6.9189,22.9224,22.9224,0,0,0,0-15.8633,18.585,18.585,0,0,0-4.4931-6.919,11.4131,11.4131,0,0,0-7.7559-3.2627H847.8486V20.1064h53.1826A20.7326,20.7326,0,0,1,915.1885,26.125Z"/><path class="cls-411" d="M989.0449,61.5078l-3.2011-8.3252q-1.97-4.6128-3.878-8.72a44.3888,44.3888,0,0,0-4.37-7.4815q-2.2162-3.375-5.0478-3.6-2.9547.2256-5.293,3.6a50.3457,50.3457,0,0,0-4.2471,7.4815q-1.9086,4.1075-3.8779,8.72L945.7109,86.708H927.49l17.4815-41.1758a114.7825,114.7825,0,0,1,11.3262-20.3633q5.54-7.6494,16.25-7.7627,10.5877.1128,16.1894,7.7071a109.2237,109.2237,0,0,1,11.2637,20.4189l17.6045,41.1758H998.8936l-3.9395-10.125H963.3154V61.5078Z"/><path class="cls-411" d="M1098.1094,23.707a28.8775,28.8775,0,0,1,7.94,8.3252A38.41,38.41,0,0,1,1110.543,42.27a41.5827,41.5827,0,0,1,1.4775,11.0254,43.4411,43.4411,0,0,1-2.5234,14.5694,32.3816,32.3816,0,0,1-8.2481,12.6562,21.5647,21.5647,0,0,1-14.3428,5.9629h-42.9638a21.346,21.346,0,0,1-14.4043-5.8506,30.8627,30.8627,0,0,1-8.1865-12.7129,45.9511,45.9511,0,0,1-2.4-14.625,44.4175,44.4175,0,0,1,2.4619-14.5693A32.24,32.24,0,0,1,1029.6,26.0127a20.9868,20.9868,0,0,1,14.3428-5.9063h42.9638A19.5348,19.5348,0,0,1,1098.1094,23.707Zm-7.5713,44.4942a17.1214,17.1214,0,0,0,4.4941-6.919,24.4136,24.4136,0,0,0,1.3535-7.9873,22.9906,22.9906,0,0,0-1.415-7.9316,18.6,18.6,0,0,0-4.4941-6.919,11.4131,11.4131,0,0,0-7.7559-3.2627h-34.9619a11.4129,11.4129,0,0,0-7.7559,3.2627,18.6,18.6,0,0,0-4.4941,6.919,22.9906,22.9906,0,0,0-1.415,7.9316,24.4136,24.4136,0,0,0,1.3535,7.9873,17.1214,17.1214,0,0,0,4.4941,6.919,11.7739,11.7739,0,0,0,7.8174,3.207h34.9619A11.7741,11.7741,0,0,0,1090.5381,68.2012Z"/></svg>