<?xml version="1.0" encoding="utf-8"?>
<!-- Generator: Adobe Illustrator 24.0.3, SVG Export Plug-In . SVG Version: 6.00 Build 0)  -->
<svg version="1.1" id="Calque_1" xmlns="http://www.w3.org/2000/svg" xmlns:xlink="http://www.w3.org/1999/xlink" x="0px" y="0px"
	 viewBox="0 0 696 101" style="enable-background:new 0 0 696 101;" xml:space="preserve">
<style type="text/css">
	.st0{stroke:#000000;stroke-width:2;stroke-miterlimit:10;}
</style>
<title>yakushimaEngineeringLogo</title>
<path class="st0" d="M36.2,27.8c-0.1,2.8,0.1,5.7,0.7,8.5c0.6,2.6,1.9,5.1,3.9,6.9c2.1,2,4.8,3.2,7.8,3.3h34.6V20h16.6v31.9
	c0,5.8-0.9,11.5-2.7,17c-1.6,4.6-4.4,8.8-8.1,12c-4,3.4-9,5.2-14.2,5.3H23.5V71.2h47c2.9-0.1,5.7-1.2,7.8-3.3c1.8-1.8,3.1-4,3.8-6.4
	H44.3c-5.2-0.1-10.2-2-14.2-5.3c-3.7-3.2-6.5-7.3-8.1-12c-1.6-4.9-2.4-10-2.5-15.1v-9.3h16.6L36.2,27.8z"/>
<path class="st0" d="M164.9,61.5l-3.2-8.3c-1.3-3.1-2.6-6-3.9-8.7c-1.2-2.6-2.7-5.1-4.4-7.5c-1.5-2.2-3.2-3.5-5-3.6
	c-2,0.2-3.7,1.4-5.3,3.6c-1.6,2.4-3,4.9-4.2,7.5c-1.3,2.7-2.6,5.6-3.9,8.7l-13.4,33.5h-18.2l17.5-41.2c3.1-7.2,6.9-14,11.3-20.4
	c3.7-5.1,9.1-7.7,16.3-7.8c7.1,0.1,12.5,2.6,16.2,7.7c4.5,6.4,8.2,13.2,11.3,20.4l17.6,41.2h-18.7l-3.9-10.1h-31.6V61.5H164.9z"/>
<path class="st0" d="M213.3,86.6h-16.6V19.8h16.6L213.3,86.6z M248.5,27.9L278,17v16.7l-21.2,7.2c-3.4,1.2-6.5,2.4-9.5,3.5
	c-2.8,1.1-5.6,2.4-8.2,4c-2.5,1.3-3.8,2.9-3.9,4.6c0.2,1.7,1.5,3.2,3.9,4.6c2.6,1.6,5.3,2.9,8.2,4c3,1.2,6.2,2.3,9.5,3.5l22.2,7.3
	v17L248.5,78c-9.4-3.5-16.8-6.9-22.3-10.3c-5.3-3-8.5-8.7-8.4-14.8c-0.1-6.1,3.2-11.8,8.5-14.8C231.7,34.7,239.1,31.3,248.5,27.9z"
	/>
<path class="st0" d="M311.8,87.7c-4.1-0.9-8.1-2.2-11.9-4c-3.7-1.7-7.1-4.1-10-7c-2.8-2.8-4.5-6.5-4.7-10.5V19.8h16.5v43
	c0.1,2.2,1.2,4.3,2.9,5.8c1.8,1.5,3.8,2.8,5.9,3.7c2.2,0.9,4.5,1.6,6.8,2c4.7,0.9,9.5,0.9,14.2,0c2.3-0.4,4.6-1.1,6.8-2
	c2.2-0.9,4.2-2.1,5.9-3.7c1.7-1.5,2.8-3.5,2.9-5.8v-43h16.6v46.5c-0.2,4-1.9,7.7-4.7,10.5c-2.9,2.9-6.3,5.3-10,7
	c-3.8,1.8-7.8,3.1-11.9,4C328.8,89.5,320.1,89.5,311.8,87.7L311.8,87.7z"/>
<path class="st0" d="M479.2,26.1c3.6,3.6,6.3,7.9,8,12.7c1.6,4.7,2.5,9.6,2.5,14.5c0,4.9-0.8,9.8-2.4,14.5c-1.6,4.8-4.4,9.1-8,12.7
	c-3.8,3.7-8.9,5.9-14.2,6h-45.3c-2.1,0-4.1-0.8-5.6-2.2c-1.5-1.3-2.3-3.2-2.4-5.1V45h16.6v23.4c0,2,1.1,3,3.4,3h29.1
	c2.9-0.1,5.7-1.2,7.8-3.3c2-1.9,3.5-4.3,4.5-6.9c1.9-5.1,1.9-10.7,0-15.9c-1-2.6-2.5-5-4.5-6.9c-2.1-2-4.8-3.2-7.8-3.3h-49V20.1
	h53.2C470.4,20.2,475.5,22.4,479.2,26.1z"/>
<path class="st0" d="M553.1,61.5l-3.2-8.3c-1.3-3.1-2.6-6-3.9-8.7c-1.2-2.6-2.7-5.1-4.4-7.5c-1.5-2.2-3.2-3.5-5-3.6
	c-2,0.2-3.7,1.4-5.3,3.6c-1.6,2.4-3,4.9-4.2,7.5c-1.3,2.7-2.6,5.6-3.9,8.7l-13.4,33.5h-18.2L509,45.5c3.1-7.2,6.9-14,11.3-20.4
	c3.7-5.1,9.1-7.7,16.2-7.8c7.1,0.1,12.5,2.6,16.2,7.7c4.5,6.4,8.2,13.2,11.3,20.4l17.6,41.2h-18.7L559,76.6h-31.6V61.5H553.1z"/>
<path class="st0" d="M662.2,23.7c3.2,2.2,5.9,5,7.9,8.3c2,3.2,3.5,6.6,4.5,10.2c1,3.6,1.5,7.3,1.5,11c0,5-0.9,9.9-2.5,14.6
	c-1.7,4.8-4.5,9.1-8.2,12.7c-3.9,3.7-9,5.8-14.3,6h-43c-5.4-0.1-10.5-2.2-14.4-5.9c-3.7-3.5-6.6-7.9-8.2-12.7
	c-1.6-4.7-2.4-9.7-2.4-14.6c0-5,0.8-9.9,2.5-14.6c1.7-4.8,4.5-9.2,8.2-12.7c3.9-3.7,9-5.8,14.3-5.9h43
	C655,20.1,658.9,21.4,662.2,23.7z M654.6,68.2c2-1.9,3.6-4.3,4.5-6.9c0.9-2.6,1.4-5.3,1.4-8c0-2.7-0.5-5.4-1.4-7.9
	c-1-2.6-2.5-5-4.5-6.9c-2.1-2-4.8-3.2-7.8-3.3h-35c-2.9,0.1-5.7,1.2-7.8,3.3c-2,1.9-3.5,4.3-4.5,6.9c-0.9,2.5-1.4,5.2-1.4,7.9
	c0,2.7,0.5,5.4,1.4,8c0.9,2.6,2.5,5,4.5,6.9c2.1,2,4.9,3.1,7.8,3.2h35C649.7,71.3,652.5,70.2,654.6,68.2z"/>
</svg>
